<?xml version="1.0" encoding="UTF-8" standalone="no"?><svg xmlns="http://www.w3.org/2000/svg" xmlns:xlink="http://www.w3.org/1999/xlink" contentScriptType="application/ecmascript" contentStyleType="text/css" height="366px" preserveAspectRatio="none" style="width:698px;height:366px;" version="1.1" viewBox="0 0 698 366" width="698px" zoomAndPan="magnify"><defs><filter height="300%" id="f6rm8cbkyvygl" width="300%" x="-1" y="-1"><feGaussianBlur result="blurOut" stdDeviation="2.0"/><feColorMatrix in="blurOut" result="blurOut2" type="matrix" values="0 0 0 0 0 0 0 0 0 0 0 0 0 0 0 0 0 0 .4 0"/><feOffset dx="4.0" dy="4.0" in="blurOut2" result="blurOut3"/><feBlend in="SourceGraphic" in2="blurOut3" mode="normal"/></filter></defs><g><!--MD5=[5358f19665500acb1e5b193c6bff82da]
cluster MongoDB--><path d="M297.5,228 C297.5,218 492,218 492,218 C492,218 686.5,218 686.5,228 L686.5,344 C686.5,354 492,354 492,354 C492,354 297.5,354 297.5,344 L297.5,228 " fill="#F5F5DC" filter="url(#f6rm8cbkyvygl)" style="stroke: #000000; stroke-width: 1.5;"/><path d="M297.5,228 C297.5,238 492,238 492,238 C492,238 686.5,238 686.5,228 " fill="none" style="stroke: #000000; stroke-width: 1.5;"/><text fill="#000000" font-family="sans-serif" font-size="14" font-weight="bold" lengthAdjust="spacingAndGlyphs" textLength="74" x="455" y="252.9951">MongoDB</text><!--MD5=[71bc7355cfed77fbcd696d267b4f2c0a]
entity PersonCollection--><polygon fill="#F0E68C" filter="url(#f6rm8cbkyvygl)" points="313.5,302,313.5,338.2969,459.5,338.2969,459.5,312,449.5,302,313.5,302" style="stroke: #000000; stroke-width: 1.5;"/><path d="M449.5,302 L449.5,312 L459.5,312 " fill="#F0E68C" style="stroke: #000000; stroke-width: 1.5;"/><text fill="#000000" font-family="sans-serif" font-size="14" lengthAdjust="spacingAndGlyphs" textLength="126" x="323.5" y="324.9951">Collection: Person</text><!--MD5=[a3c7484ffc705243e308f7aead3530ce]
entity ComicbookCollection--><polygon fill="#F0E68C" filter="url(#f6rm8cbkyvygl)" points="495,302,495,338.2969,670,338.2969,670,312,660,302,495,302" style="stroke: #000000; stroke-width: 1.5;"/><path d="M660,302 L660,312 L670,312 " fill="#F0E68C" style="stroke: #000000; stroke-width: 1.5;"/><text fill="#000000" font-family="sans-serif" font-size="14" lengthAdjust="spacingAndGlyphs" textLength="155" x="505" y="324.9951">Collection: Comicbook</text><!--MD5=[fee662a292a0353a69bd162820bae93b]
entity User--><ellipse cx="34.5" cy="98" fill="#FEFECE" filter="url(#f6rm8cbkyvygl)" rx="8" ry="8" style="stroke: #A80036; stroke-width: 2.0;"/><path d="M34.5,106 L34.5,133 M21.5,114 L47.5,114 M34.5,133 L21.5,148 M34.5,133 L47.5,148 " fill="none" filter="url(#f6rm8cbkyvygl)" style="stroke: #A80036; stroke-width: 2.0;"/><text fill="#000000" font-family="sans-serif" font-size="14" lengthAdjust="spacingAndGlyphs" textLength="57" x="6" y="167.9951">API User</text><!--MD5=[645d8587175d8f7ad110cd370775931d]
entity API--><rect fill="#90EE90" filter="url(#f6rm8cbkyvygl)" height="39.2969" style="stroke: #000000; stroke-width: 1.5;" width="105" x="132" y="110"/><polygon fill="#90EE90" points="220,115,220,129,232,129,232,121,226,115,220,115" style="stroke: #000000; stroke-width: 1.5;"/><line style="stroke: #000000; stroke-width: 1.5;" x1="226" x2="226" y1="115" y2="121"/><line style="stroke: #000000; stroke-width: 1.5;" x1="232" x2="226" y1="121" y2="121"/><text fill="#000000" font-family="sans-serif" font-size="14" lengthAdjust="spacingAndGlyphs" textLength="75" x="142" y="135.9951">API Service</text><!--MD5=[e9858a03f98ebdde004d0e3cbe08b97e]
entity Comicbook--><rect fill="#90EE90" filter="url(#f6rm8cbkyvygl)" height="39.2969" style="stroke: #000000; stroke-width: 1.5;" width="162" x="510.5" y="110"/><polygon fill="#90EE90" points="655.5,115,655.5,129,667.5,129,667.5,121,661.5,115,655.5,115" style="stroke: #000000; stroke-width: 1.5;"/><line style="stroke: #000000; stroke-width: 1.5;" x1="661.5" x2="661.5" y1="115" y2="121"/><line style="stroke: #000000; stroke-width: 1.5;" x1="667.5" x2="661.5" y1="121" y2="121"/><text fill="#000000" font-family="sans-serif" font-size="14" lengthAdjust="spacingAndGlyphs" textLength="132" x="520.5" y="135.9951">Comicbook Service</text><!--MD5=[aa9590aded7922f1f97871b066948052]
entity Person--><rect fill="#90EE90" filter="url(#f6rm8cbkyvygl)" height="39.2969" style="stroke: #000000; stroke-width: 1.5;" width="133" x="306" y="110"/><polygon fill="#90EE90" points="422,115,422,129,434,129,434,121,428,115,422,115" style="stroke: #000000; stroke-width: 1.5;"/><line style="stroke: #000000; stroke-width: 1.5;" x1="428" x2="428" y1="115" y2="121"/><line style="stroke: #000000; stroke-width: 1.5;" x1="434" x2="428" y1="121" y2="121"/><text fill="#000000" font-family="sans-serif" font-size="14" lengthAdjust="spacingAndGlyphs" textLength="103" x="316" y="135.9951">Person Service</text><!--MD5=[374573ffdb8ea61c65c377fc2643984d]
link User to API--><path d="M68.2083,129.5 C85.3921,129.5 106.778,129.5 126.506,129.5 " fill="none" id="User-API" style="stroke: #A80036; stroke-width: 1.0;"/><polygon fill="#A80036" points="131.751,129.5,122.751,125.5,126.751,129.5,122.751,133.5,131.751,129.5" style="stroke: #A80036; stroke-width: 1.0;"/><polygon fill="#A80036" points="63.0669,129.5,72.0669,133.5,68.0669,129.5,72.0669,125.5,63.0669,129.5" style="stroke: #A80036; stroke-width: 1.0;"/><text fill="#000000" font-family="sans-serif" font-size="13" lengthAdjust="spacingAndGlyphs" textLength="32" x="81.5" y="122.5669">HTTP</text><!--MD5=[b9b97e0123c51f5ab98b86e19d00a8e4]
link API to Comicbook--><path d="M222.145,107.517 C256.008,89.097 307.781,64.222 356.5,54 C430.092,38.559 513.209,79.758 558.217,107.205 " fill="none" id="API-Comicbook" style="stroke: #A80036; stroke-width: 1.0;"/><polygon fill="#A80036" points="562.717,109.981,557.1559,101.8524,558.4611,107.3566,552.9569,108.6618,562.717,109.981" style="stroke: #A80036; stroke-width: 1.0;"/><polygon fill="#A80036" points="217.694,109.957,227.5086,109.1368,222.0781,107.5528,223.662,102.1223,217.694,109.957" style="stroke: #A80036; stroke-width: 1.0;"/><text fill="#000000" font-family="sans-serif" font-size="13" lengthAdjust="spacingAndGlyphs" textLength="32" x="357.5" y="54.0669">HTTP</text><!--MD5=[c106b2f7c2ccca703f5ba2a46ed63c03]
link API to Person--><path d="M242.171,129.5 C260.547,129.5 281.113,129.5 300.381,129.5 " fill="none" id="API-Person" style="stroke: #A80036; stroke-width: 1.0;"/><polygon fill="#A80036" points="305.778,129.5,296.778,125.5,300.778,129.5,296.778,133.5,305.778,129.5" style="stroke: #A80036; stroke-width: 1.0;"/><polygon fill="#A80036" points="237.118,129.5,246.118,133.5,242.118,129.5,246.118,125.5,237.118,129.5" style="stroke: #A80036; stroke-width: 1.0;"/><text fill="#000000" font-family="sans-serif" font-size="13" lengthAdjust="spacingAndGlyphs" textLength="32" x="255.5" y="122.5669">HTTP</text><!--MD5=[5a66e5ed2515ec8325c4233d4ee4a7a3]
link Person to Comicbook--><path d="M444.132,129.5 C463.587,129.5 484.862,129.5 505.043,129.5 " fill="none" id="Person-Comicbook" style="stroke: #A80036; stroke-width: 1.0;"/><polygon fill="#A80036" points="510.148,129.5,501.148,125.5,505.148,129.5,501.148,133.5,510.148,129.5" style="stroke: #A80036; stroke-width: 1.0;"/><polygon fill="#A80036" points="439.099,129.5,448.099,133.5,444.099,129.5,448.099,125.5,439.099,129.5" style="stroke: #A80036; stroke-width: 1.0;"/><text fill="#000000" font-family="sans-serif" font-size="13" lengthAdjust="spacingAndGlyphs" textLength="35" x="457.25" y="122.5669">Kafka</text><!--MD5=[7dc3359a5df76b360761ef3e3ecda30b]
link Person to PersonCollection--><path d="M373.894,149.263 C376.491,184.234 382.06,259.217 384.844,296.7054 " fill="none" id="Person-&gt;PersonCollection" style="stroke: #A80036; stroke-width: 1.0;"/><polygon fill="#A80036" points="385.234,301.9551,388.5566,292.6836,384.8638,296.9688,380.5786,293.276,385.234,301.9551" style="stroke: #A80036; stroke-width: 1.0;"/><!--MD5=[c9612f02d9e2fb3fabaa70390edc9e7e]
link Comicbook to ComicbookCollection--><path d="M590.604,149.263 C588.934,184.234 585.354,259.217 583.564,296.7054 " fill="none" id="Comicbook-&gt;ComicbookCollection" style="stroke: #A80036; stroke-width: 1.0;"/><polygon fill="#A80036" points="583.314,301.9551,587.7386,293.1561,583.5524,296.9608,579.7477,292.7746,583.314,301.9551" style="stroke: #A80036; stroke-width: 1.0;"/><!--MD5=[e0a6962c46b76d7d54b9bfbd42809734]
@startuml
:API User: as User

artifact "API Service" as API
artifact "Comicbook Service" as Comicbook
artifact "Person Service" as Person

User <-> API: HTTP

API <-> Comicbook: HTTP
API <-> Person: HTTP
Person <-> Comicbook: Kafka

database MongoDB {
    file "Collection: Person" as PersonCollection
    file "Collection: Comicbook" as ComicbookCollection
}

Person - -> PersonCollection
Comicbook - -> ComicbookCollection

skinparam artifact {
  backgroundColor lightgreen
}

skinparam file {
  backgroundColor khaki
}

skinparam database {
  backgroundColor beige
}
@enduml

PlantUML version 1.2019.12(Sun Nov 03 10:24:54 UTC 2019)
(GPL source distribution)
Java Runtime: Java(TM) SE Runtime Environment
JVM: Java HotSpot(TM) 64-Bit Server VM
Java Version: 1.7.0_25-b15
Operating System: Linux
Default Encoding: UTF-8
Language: en
Country: US
--></g></svg>